<svg width="523" height="292" viewBox="0 0 523 292" fill="none" xmlns="http://www.w3.org/2000/svg">
<g id="boat" clip-path="url(#clip0)" filter="url(#filter0_d)">
<path id="Vector" d="M20.6721 244.104C-5.49116 219.571 2.18922 166.65 30.2257 151.229C33.3478 147.199 39.9042 147.082 42.1522 150.762C44.525 154.675 43.401 161.218 39.0925 162.211C34.7216 163.262 33.4103 162.327 30.9126 160.633C17.6748 169.337 12.2424 183.998 11.9926 202.632L12.1799 202.048C19.7354 204.034 27.5407 205.845 35.5333 207.538L37.7812 201.872H36.5948C35.908 201.872 35.908 200.879 36.5948 200.879H38.2183L40.9033 194.279C41.0906 193.812 41.7151 193.52 42.2146 193.695C42.7142 193.87 43.0264 194.454 42.839 194.921L40.4662 200.879H53.8288C54.5157 200.879 54.5157 201.872 53.8288 201.872H40.0916L37.6563 207.947C52.7673 211.043 68.5652 213.672 84.925 215.716L89.8579 203.158H77.3071C76.6202 203.158 76.6202 202.165 77.3071 202.165H90.295L92.98 195.389C93.1674 194.921 93.7918 194.629 94.2913 194.805C94.7909 194.98 95.1031 195.564 94.9157 196.031L92.4805 202.106H93.7918C94.4787 202.106 94.4787 203.099 93.7918 203.099H91.9185L86.8607 215.891C89.6706 216.242 92.4805 216.534 95.3528 216.884L162.478 54.849L153.362 53.856C152.425 53.7392 151.738 52.9798 151.863 52.1037C151.988 51.2275 152.8 50.5849 153.736 50.7018L252.894 61.7417L263.072 50.877V42.1152H266.132V2.51172C266.132 1.4603 267.069 0.584122 268.193 0.584122C269.317 0.584122 270.253 1.4603 270.253 2.51172V42.1152H273.625V51.1107L289.236 65.7721L375.655 75.4101C376.592 75.5269 377.279 76.2863 377.154 77.1625C377.029 77.9803 376.342 78.5644 375.468 78.5644C375.281 78.5644 375.718 78.6228 368.35 77.805C379.777 105.492 386.583 123.834 384.959 155.552L443.093 210.109L442.843 210.342C444.467 210.109 446.09 209.875 447.714 209.583V198.835H450.773V196.674C450.773 194.746 452.397 193.227 454.457 193.227C456.518 193.227 458.142 194.746 458.142 196.674V222.55C462.325 225.237 462.138 228.216 458.142 231.487V246.207C458.142 247.492 458.454 248.777 459.078 249.946C463.137 257.773 467.633 263.906 473.253 266.418C485.366 271.733 497.855 274.362 510.218 274.888C512.341 270.799 518.96 272.201 518.96 276.757C518.96 281.196 512.591 282.715 510.343 278.801C490.424 277.867 473.814 278.743 462.512 282.481C460.577 283.124 458.516 283.416 456.456 283.416C316.211 282.364 177.152 280.729 106.905 276.406C64.3816 273.836 36.907 264.315 23.6068 247.434C21.5462 256.313 18.2993 267.411 16.1138 270.857C14.1156 274.012 9.68226 272.551 9.49494 268.93C9.30761 266.301 15.4269 253.801 20.235 246.324L20.6721 244.104ZM14.1157 203.8C13.4288 203.625 12.6795 203.45 11.9926 203.274C11.9926 204.735 11.9926 206.253 12.055 207.772C12.7419 208.006 13.4288 208.181 14.1157 208.415V203.8ZM190.639 132.537L116.021 213.029L192.076 161.919C192.201 151.872 191.701 142.117 190.639 132.537ZM110.214 219.279L109.277 220.331H112.15V224.244H109.652V225.588L161.854 222.434L186.331 206.312L112.462 218.053L110.214 219.279ZM111.65 216.709L110.152 217.702L110.838 217.585L111.65 216.709ZM110.089 218.403L109.028 218.578V219.162L109.777 218.754L110.089 218.403ZM255.205 217.352L241.905 218.169L240.156 229.852L254.58 227.691L255.205 217.352ZM254.892 234.759C256.953 234.759 258.951 234.817 261.012 234.817V234.291C258.951 234.35 256.953 234.408 254.892 234.466V234.759ZM241.218 218.228L223.047 219.338L219.363 233.065L239.469 230.027L241.218 218.228ZM219.238 233.707V233.766C225.857 233.707 232.476 233.649 239.032 233.532L239.469 230.67L219.238 233.707ZM222.36 219.338L207.998 220.214L203.315 233.473C215.616 233.941 213.493 233.882 218.738 233.123L222.36 219.338ZM207.249 220.272L193.574 221.09L188.579 232.831C193.2 233.065 197.883 233.298 202.566 233.473L207.249 220.272ZM192.825 221.149L179.4 221.966L173.967 232.013C178.588 232.305 183.209 232.539 187.892 232.773L192.825 221.149ZM186.831 206.721L163.165 222.317L178.963 221.382L186.831 206.721ZM173.281 233.24L173.093 233.532C175.529 233.59 177.964 233.59 180.399 233.649C178.026 233.532 175.653 233.415 173.281 233.24ZM173.218 231.955L178.588 221.966L162.103 222.959L150.801 230.378C158.17 231.02 165.663 231.546 173.218 231.955ZM160.792 223.076L109.652 226.172V227.282L109.715 226.639C122.827 228.041 136.19 229.268 149.74 230.319L160.792 223.076ZM187.83 205.377C189.64 194.98 190.827 184.816 191.514 174.769L114.148 217.06L187.83 205.377ZM112.212 217.41L191.514 174.068C191.763 170.271 191.888 166.475 191.951 162.678C105.344 220.915 114.96 214.081 111.838 217.469L112.212 217.41ZM188.454 205.669L188.017 205.961L179.712 221.324L193.075 220.506L200.068 204.034C196.259 204.735 192.388 205.26 188.454 205.669ZM200.88 203.917L193.886 220.448L207.561 219.63L214.055 201.23C209.684 202.165 205.313 203.099 200.88 203.917ZM214.805 201.055L208.186 219.63L222.485 218.754L228.042 198.017C223.671 198.952 219.238 200.003 214.805 201.055ZM228.792 197.784L223.234 218.637L241.343 217.527L244.714 194.513C239.719 195.33 233.725 196.674 228.792 197.784ZM245.401 194.454L242.029 217.527L255.267 216.709L256.641 193.286C252.894 193.52 249.085 193.928 245.401 194.454ZM257.453 225.413L257.89 217.235L255.954 217.352L255.33 227.632L256.266 227.515V225.471H257.453V225.413ZM257.89 216.534L259.076 193.111C258.514 193.169 257.952 193.169 257.39 193.227L256.016 216.651L257.89 216.534ZM263.135 51.8116L253.769 61.8001L258.951 62.3842L263.197 54.6738V51.8116H263.135ZM263.135 56.0757L259.638 62.4426L263.135 62.8515V56.0757ZM266.694 192.76C266.07 192.76 265.383 192.819 264.758 192.819L263.884 216.183L266.694 216.008V192.76ZM272.314 53.4471H269.254V63.494L273.001 63.9613L272.314 53.4471ZM273.625 51.9868L274.374 64.0782L288.112 65.5969L273.625 51.9868ZM334.131 198.076C320.831 195.038 308.78 191.65 292.67 191.942C288.736 192.176 284.802 192.293 280.931 192.41L283.366 215.015L374.532 209.466C363.979 203.274 348.868 201.464 334.131 198.076ZM284.49 232.072L283.616 223.894L272.813 225.529V232.539C276.747 232.422 280.619 232.247 284.49 232.072ZM272.813 233.824V234.817C276.747 234.817 280.743 234.817 284.74 234.759L284.615 233.357C280.681 233.532 276.747 233.707 272.813 233.824ZM284.24 223.193L367.913 210.517L283.366 215.658L284.24 223.193ZM283.553 223.31L282.742 215.716L272.813 216.3V224.945L283.553 223.31ZM384.834 156.428C383.835 173.893 380.214 191.709 374.969 209.758L375.031 210.109L284.24 223.835L285.114 232.072C302.286 231.312 319.021 230.261 335.38 229.034L335.443 229.677V219.805H337.94V220.856C375.656 218.403 410.873 215.074 442.344 210.401L384.834 156.428ZM387.145 226.639L386.895 218.578L362.98 220.214L362.605 228.742L387.145 226.639ZM360.919 228.567L361.169 220.915L337.316 222.025L337.191 230.027L360.919 228.567ZM306.532 240.366C315.836 239.957 325.077 239.49 334.256 238.847V235.109C324.89 235.401 315.649 235.635 306.532 235.752V240.366ZM306.532 234.466C315.649 234.291 324.89 234.116 334.256 233.824V234.466V233.006H335.505V230.261C326.014 231.02 316.336 231.663 306.532 232.247V234.466ZM303.472 240.541C304.222 240.483 304.971 240.483 305.72 240.425H305.221V235.81C304.659 235.81 304.097 235.81 303.535 235.868V240.541H303.472ZM286.114 241.067C291.671 240.95 297.166 240.775 302.661 240.541H302.099V235.868C296.541 235.927 291.046 236.044 285.552 236.044L286.114 241.067ZM305.158 234.525V232.305C298.602 232.656 291.983 233.006 285.302 233.298L285.427 234.759C291.983 234.7 298.539 234.642 305.158 234.525ZM272.813 241.359C277.059 241.301 281.243 241.184 285.427 241.125L284.865 236.044C280.806 236.044 276.81 236.102 272.751 236.102L272.813 241.359ZM272.813 192.643V215.658L282.679 215.074L280.244 192.41C276.747 192.527 273.25 192.585 269.754 192.702H272.813V192.643ZM265.071 241.476C265.258 241.476 265.882 241.476 266.632 241.418V236.044C266.132 236.044 265.57 236.044 265.071 236.044V241.476ZM265.071 234.817C265.57 234.817 266.132 234.817 266.632 234.817V234.058C266.07 234.058 265.57 234.116 265.071 234.116V234.817ZM265.071 232.831C265.57 232.831 266.132 232.773 266.632 232.773V229.209H265.071V232.831ZM265.071 221.265V225.413H266.632V216.709L263.822 216.884L263.634 221.265H265.071ZM264.071 192.877C262.635 192.935 261.199 192.994 259.763 193.111L258.577 216.534L263.197 216.242L264.071 192.877ZM263.197 216.884L258.514 217.176L258.077 225.413H260.949V221.265H263.01L263.197 216.884ZM261.012 229.209H256.266V228.1L255.267 228.275L254.955 233.181C256.953 233.123 258.951 233.065 261.012 233.006V229.209V229.209ZM261.012 241.593V236.102C258.951 236.102 256.891 236.044 254.83 236.044L254.518 241.71C256.641 241.651 258.826 241.593 261.012 241.593ZM254.58 228.333L240.094 230.553L239.657 233.532C244.59 233.415 249.46 233.357 254.268 233.181L254.58 228.333ZM254.206 234.408C251.521 234.466 248.773 234.525 246.088 234.583C248.773 234.642 251.521 234.642 254.206 234.7V234.408ZM253.769 241.71L254.081 235.985C249.148 235.927 244.152 235.868 239.282 235.81L238.408 241.885C243.528 241.826 248.648 241.768 253.769 241.71ZM237.721 241.826L238.595 235.752C231.914 235.635 225.295 235.459 218.738 235.284L216.99 241.71C223.921 241.826 230.79 241.885 237.721 241.826ZM216.366 241.71L218.114 235.284C210.434 235.051 213.306 235.051 208.998 235.051V241.534H208.56C211.183 241.651 213.743 241.71 216.366 241.71ZM207.624 241.593V235.109C204.189 235.109 207.686 235.109 202.691 235.109L200.443 241.418C202.816 241.476 205.251 241.534 207.624 241.593ZM199.756 241.359L202.004 235.109C197.258 235.109 192.45 235.051 187.642 235.051L185.145 240.892C190.015 241.009 194.886 241.242 199.756 241.359ZM177.402 240.425C179.775 240.541 182.085 240.658 184.458 240.775L186.893 234.992C183.708 234.992 180.524 234.934 177.339 234.875V240.425H177.402ZM169.909 240.016C171.969 240.132 173.967 240.249 176.028 240.366V234.875C174.842 234.875 173.655 234.817 172.406 234.817L169.909 239.49V240.016ZM169.909 238.088L171.657 234.817C171.095 234.817 170.471 234.817 169.909 234.817V238.088ZM146.743 238.322C153.924 238.964 161.167 239.49 168.535 239.957V234.759C161.354 234.642 154.048 234.466 146.743 234.291V238.322ZM146.743 233.006C155.36 233.24 163.852 233.415 172.344 233.532L172.531 233.181C163.852 232.656 155.235 232.072 146.743 231.371V233.006ZM139.937 237.679C141.747 237.854 143.558 238.03 145.369 238.205V234.233C143.558 234.174 141.747 234.116 139.937 234.058V237.679ZM138.563 237.562V234.058C130.82 233.824 123.077 233.532 115.272 233.24V234.992C122.952 235.927 130.758 236.803 138.563 237.562ZM115.272 231.955C125.388 232.364 135.441 232.714 145.369 233.006V231.312C135.191 230.494 125.2 229.56 115.272 228.567V231.955ZM111.338 234.408C112.212 234.525 113.086 234.642 113.961 234.759V233.123C112.524 233.065 111.026 233.006 109.59 232.948L111.338 234.408ZM108.715 232.305L108.778 231.663C110.526 231.721 112.212 231.838 113.961 231.896V228.392C112.524 228.216 111.088 228.1 109.652 227.924V229.501H108.715V232.305ZM103.283 231.896H105.094V226.522L103.283 226.639V231.896ZM103.283 225.938L105.094 225.821V222.083L103.283 223.076V225.938ZM103.283 216.651V222.317L105.094 221.324V217.001H109.09V217.702L113.648 214.665L190.577 131.719C189.516 122.899 187.954 114.313 185.769 105.901L100.848 216.709L103.283 216.651ZM99.9736 216.651L185.519 105.084C180.899 87.443 173.718 70.7371 163.665 54.9659L163.165 54.9074L96.0397 216.943C96.7266 217.001 97.351 217.118 98.0378 217.176V216.709L99.9736 216.651ZM94.0416 224.303V219.747H97.6007L98.0378 219.162V217.761L97.9754 218.403C94.104 217.994 90.2326 217.527 86.4236 217.06L85.9241 218.286L85.8616 223.31H85.5494C88.3593 223.719 91.2317 224.011 94.0416 224.303ZM85.1123 223.31L85.1748 220.155L83.9884 223.193C84.363 223.193 84.7377 223.251 85.1123 223.31ZM81.9278 222.901C81.9278 222.726 81.8029 223.135 84.3006 216.884C80.4292 216.417 76.5578 215.891 72.7488 215.307V221.557H72.4366C75.5587 222.025 78.7432 222.492 81.9278 222.901ZM72.0619 221.499V215.19C67.7534 214.548 63.5698 213.905 59.3237 213.204V219.338H59.0115C63.3825 220.097 67.691 220.856 72.0619 221.499ZM58.6993 219.279V213.088C54.2659 212.328 49.895 211.569 45.524 210.751V216.592H45.2118C49.6452 217.585 54.141 218.462 58.6993 219.279ZM44.8372 216.534V210.634C42.2146 210.109 39.592 209.641 37.0319 209.057L34.9713 214.197C38.2183 215.015 41.5277 215.775 44.8372 216.534ZM32.9732 213.73C33.0356 213.555 32.7859 214.197 35.0338 208.648C33.2854 208.298 31.537 207.889 29.7886 207.48V212.796H29.4764C30.6628 213.146 31.7868 213.438 32.9732 213.73ZM29.1018 212.737V207.363C24.2313 206.312 19.4857 205.144 14.8025 203.975V208.531H14.4903C19.2983 210.05 24.1688 211.394 29.1018 212.737Z" fill="#F54D3D" stroke="#B97D60" stroke-width="2" stroke-miterlimit="10"/>
</g>
<defs>
<filter id="filter0_d" x="0" y="0" width="523" height="292" filterUnits="userSpaceOnUse" color-interpolation-filters="sRGB">
<feFlood flood-opacity="0" result="BackgroundImageFix"/>
<feColorMatrix in="SourceAlpha" type="matrix" values="0 0 0 0 0 0 0 0 0 0 0 0 0 0 0 0 0 0 127 0"/>
<feOffset dy="4"/>
<feGaussianBlur stdDeviation="2"/>
<feColorMatrix type="matrix" values="0 0 0 0 0 0 0 0 0 0 0 0 0 0 0 0 0 0 0.25 0"/>
<feBlend mode="normal" in2="BackgroundImageFix" result="effect1_dropShadow"/>
<feBlend mode="normal" in="SourceGraphic" in2="effect1_dropShadow" result="shape"/>
</filter>
<clipPath id="clip0">
<rect width="515" height="284" fill="white" transform="matrix(-1 0 0 1 519 0)"/>
</clipPath>
</defs>
</svg>
